Coordinates
version=1
nRows=27
nColumns=38
inDegrees=no

Units are S.I. units (second, meters, Newtons, ...)
If the header above contains a line with 'inDegrees', this indicates whether rotational values are in degrees (yes) or radians (no).

endheader
time	pelvis_tilt	pelvis_list	pelvis_rotation	pelvis_tx	pelvis_ty	pelvis_tz	hip_flexion_r	hip_adduction_r	hip_rotation_r	knee_angle_r	ankle_angle_r	subtalar_angle_r	mtp_angle_r	hip_flexion_l	hip_adduction_l	hip_rotation_l	knee_angle_l	ankle_angle_l	subtalar_angle_l	mtp_angle_l	lumbar_extension	lumbar_bending	lumbar_rotation	arm_flex_r	arm_add_r	arm_rot_r	elbow_flex_r	pro_sup_r	wrist_flex_r	wrist_dev_r	arm_flex_l	arm_add_l	arm_rot_l	elbow_flex_l	pro_sup_l	wrist_flex_l	wrist_dev_l
2.85833	0.0200603	-0.186553	-0.117228	0.930519	1.01208	-0.639655	0.504706	0.260195	-0.32736	-0.699747	0.449364	0.0999993	5.49557e-06	-0.0491914	-0.248167	-0.249982	-1.94502	0.1485	0.0889053	2.35262e-07	-0.377149	0.197181	-0.0421905	-0.509373	-0.383696	-0.220547	1.88234	2.0844	-0.0135184	-0.0240283	-0.197205	-0.252311	0.187516	1.97838	1.70727	0.025745	-0.012019
2.86667	0.0208251	-0.19762	-0.121913	0.926474	1.00925	-0.639748	0.491257	0.271185	-0.311044	-0.755924	0.496495	0.0999993	5.49557e-06	0.0177208	-0.26716	-0.230774	-2.0251	0.171027	0.0889053	2.35262e-07	-0.392314	0.205846	-0.0173336	-0.440326	-0.399514	-0.192949	1.86225	2.07753	-0.0135184	-0.0240283	-0.196017	-0.251196	0.188765	1.92397	1.70613	0.025745	-0.012019
2.875	0.0197202	-0.206806	-0.125916	0.922325	1.00677	-0.639949	0.473589	0.27885	-0.29884	-0.802727	0.548901	0.0999993	5.49557e-06	0.0911592	-0.282507	-0.206983	-2.09501	0.193786	0.0889053	2.35262e-07	-0.404767	0.212664	0.00770387	-0.370082	-0.414855	-0.164933	1.84355	2.06746	-0.0135184	-0.0240283	-0.194876	-0.250921	0.191769	1.87257	1.70506	0.025745	-0.012019
2.88333	0.017271	-0.213797	-0.129752	0.918235	1.00477	-0.640199	0.450535	0.282674	-0.290301	-0.838716	0.602846	0.0999993	5.49557e-06	0.16928	-0.293835	-0.180439	-2.15327	0.215531	0.0889053	2.35262e-07	-0.414692	0.2172	0.033339	-0.300467	-0.429538	-0.138092	1.82901	2.05496	-0.0135184	-0.0240283	-0.194707	-0.251896	0.196655	1.82725	1.70417	0.025745	-0.012019
2.89167	0.0138393	-0.218063	-0.134063	0.91437	1.00337	-0.640427	0.421767	0.282005	-0.284576	-0.863644	0.655337	0.0999993	5.49557e-06	0.250072	-0.300884	-0.153402	-2.19861	0.235196	0.0889053	2.35262e-07	-0.42206	0.218746	0.0599548	-0.23336	-0.443304	-0.113994	1.8213	2.04135	-0.0135184	-0.0240283	-0.196488	-0.254605	0.203333	1.79088	1.70389	0.025745	-0.012019
2.9	0.00956658	-0.218916	-0.139529	0.910874	1.00265	-0.640548	0.387728	0.276128	-0.2806	-0.878138	0.704099	0.0999993	5.49557e-06	0.331583	-0.303578	-0.128334	-2.23004	0.252096	0.0889053	2.35262e-07	-0.42656	0.216405	0.0877977	-0.170472	-0.455807	-0.0939615	1.82259	2.02826	-0.0135184	-0.0240283	-0.201156	-0.259515	0.211429	1.7657	1.70496	0.025745	-0.012019
2.90833	0.004383	-0.21562	-0.146745	0.907871	1.0026	-0.640476	0.349409	0.264416	-0.277279	-0.883239	0.747231	0.0999993	5.49557e-06	0.412076	-0.302069	-0.107604	-2.247	0.266001	0.0889053	2.35262e-07	-0.42762	0.20927	0.116898	-0.11316	-0.466631	-0.0788711	1.83417	2.01729	-0.0135184	-0.0240283	-0.209538	-0.26698	0.220272	1.75295	1.70832	0.025745	-0.012019
2.91667	-0.00192764	-0.207553	-0.156078	0.90547	1.00321	-0.640139	0.308072	0.246469	-0.273778	-0.879996	0.782907	0.0999993	5.49557e-06	0.490128	-0.296749	-0.0931803	-2.24935	0.277133	0.0889053	2.35262e-07	-0.424505	0.196642	0.147016	-0.0623077	-0.475342	-0.0690009	1.85632	2.00962	-0.0135184	-0.0240283	-0.222283	-0.277138	0.22894	1.75272	1.71488	0.025745	-0.012019
2.925	-0.0096324	-0.194365	-0.167552	0.903764	1.00444	-0.639494	0.26498	0.222278	-0.26965	-0.869164	0.809095	0.0999993	5.49557e-06	0.564666	-0.288202	-0.0863559	-2.2374	0.286022	0.0889053	2.35262e-07	-0.416487	0.178232	0.177627	-0.0182735	-0.481565	-0.0639555	1.88828	2.0056	-0.0135184	-0.0240283	-0.239845	-0.28986	0.236347	1.76401	1.72524	0.025745	-0.012019
2.93333	-0.018948	-0.17609	-0.180783	0.902819	1.00623	-0.638527	0.221185	0.192333	-0.264896	-0.851068	0.823447	0.0999993	5.49557e-06	0.63493	-0.277092	-0.0875717	-2.21178	0.293293	0.0889053	2.35262e-07	-0.403033	0.154276	0.207936	0.0190856	-0.485059	-0.062685	1.92849	2.00471	-0.0135184	-0.0240283	-0.262487	-0.304724	0.241365	1.78496	1.7395	0.025745	-0.012019
2.94167	-0.0299496	-0.15318	-0.194989	0.902667	1.00854	-0.637267	0.177393	0.157568	-0.260078	-0.8257	0.823535	0.0999993	5.49557e-06	0.700399	-0.264031	-0.0963894	-2.17341	0.299496	0.0889053	2.35262e-07	-0.383977	0.125538	0.236924	0.0503407	-0.485773	-0.0636093	1.97483	2.00575	-0.0135184	-0.0240283	-0.2903	-0.321041	0.242937	1.8132	1.75714	0.025745	-0.012019
2.95	-0.0425088	-0.126464	-0.209091	0.903309	1.0113	-0.635783	0.133917	0.119292	-0.256204	-0.792897	0.807119	0.0999993	5.49557e-06	0.760684	-0.249469	-0.1116	-2.12335	0.305038	0.0889053	2.35262e-07	-0.359636	0.0932206	0.263437	0.0763735	-0.483869	-0.0648379	2.02499	2.00721	-0.0135184	-0.0240283	-0.323222	-0.337922	0.240176	1.84625	1.77713	0.025745	-0.012019
2.95833	-0.0562849	-0.0970736	-0.221864	0.904715	1.01447	-0.634172	0.0907163	0.0791157	-0.254439	-0.752591	0.772472	0.0999993	5.49557e-06	0.815425	-0.233649	-0.13143	-2.06268	0.31021	0.0889053	2.35262e-07	-0.330845	0.0588093	0.286308	0.0982274	-0.479705	-0.0644542	2.07678	2.00772	-0.0135184	-0.0240283	-0.361025	-0.35437	0.232463	1.88178	1.79802	0.025745	-0.012019
2.96667	-0.0707531	-0.066348	-0.232102	0.906832	1.01798	-0.63255	0.0475124	0.0387991	-0.255875	-0.705128	0.71882	0.0999993	5.49557e-06	0.864221	-0.216624	-0.153793	-1.9924	0.315298	0.0889053	2.35262e-07	-0.298893	0.0238998	0.304502	0.116942	-0.473797	-0.0608142	2.12835	2.00644	-0.0135184	-0.0240283	-0.403264	-0.3694	0.219528	1.91786	1.81815	0.025745	-0.012019
2.975	-0.0852713	-0.0357292	-0.23878	0.909574	1.02178	-0.631036	0.00397477	0.000155264	-0.261182	-0.651536	0.646811	0.0999993	5.49557e-06	0.906605	-0.198347	-0.176543	-1.91343	0.320701	0.0889053	2.35262e-07	-0.265379	-0.00993982	0.31726	0.133386	-0.466754	-0.0527932	2.17833	2.00322	-0.0135184	-0.0240283	-0.449215	-0.382168	0.20153	1.95301	1.83582	0.025745	-0.012019
2.98333	-0.099167	-0.00666722	-0.241185	0.91282	1.02583	-0.629738	-0.0400891	-0.0350517	-0.270353	-0.593724	0.558845	0.0999993	5.49557e-06	0.942074	-0.178801	-0.197702	-1.82651	0.327005	0.0889053	2.35262e-07	-0.232032	-0.0412679	0.324227	0.148125	-0.459224	-0.0399282	2.22582	1.99854	-0.0135184	-0.0240283	-0.49781	-0.392094	0.179086	1.98622	1.84951	0.025745	-0.012019
2.99167	-0.111825	0.0194717	-0.238994	0.91643	1.03006	-0.628738	-0.0845688	-0.0652405	-0.282634	-0.534564	0.459324	0.0999993	5.49557e-06	0.970146	-0.158131	-0.215666	-1.73228	0.334998	0.0889053	2.35262e-07	-0.200514	-0.0688384	0.325533	0.161337	-0.451836	-0.0224279	2.27036	1.99333	-0.0135184	-0.0240283	-0.547613	-0.39894	0.153253	2.01689	1.85811	0.025745	-0.012019
3	-0.122758	0.0414952	-0.232308	0.920248	1.03437	-0.628077	-0.128975	-0.0891382	-0.296589	-0.477775	0.354526	0.0999993	5.49557e-06	0.990418	-0.136728	-0.229372	-1.63136	0.345604	0.0889053	2.35262e-07	-0.172271	-0.0916533	0.321791	0.172809	-0.445156	-0.00106701	2.31179	1.98864	-0.0135184	-0.0240283	-0.596863	-0.402854	0.125438	2.04474	1.86107	0.025745	-0.012019
3.00833	-0.131612	0.0584654	-0.221621	0.924112	1.03867	-0.62775	-0.172465	-0.105864	-0.310236	-0.427572	0.251947	0.0999993	5.49557e-06	1.00264	-0.115237	-0.238417	-1.52438	0.359748	0.0889053	2.35262e-07	-0.148414	-0.109013	0.314029	0.181994	-0.439646	0.02299	2.35006	1.98536	-0.0135184	-0.0240283	-0.643575	-0.404333	0.0972401	2.06971	1.85858	0.025745	-0.012019
3.01667	-0.138159	0.0698039	-0.207732	0.927863	1.04287	-0.627707	-0.213949	-0.115016	-0.321362	-0.3882	0.159266	0.0999993	5.49557e-06	1.00673	-0.094492	-0.243129	-1.41219	0.378281	0.0889053	2.35262e-07	-0.129675	-0.120565	0.303548	0.188135	-0.435633	0.0483754	2.3851	1.98409	-0.0135184	-0.0240283	-0.685701	-0.404136	0.0702701	2.09187	1.85158	0.025745	-0.012019
3.025	-0.142283	0.075373	-0.191632	0.931362	1.04688	-0.627867	-0.252232	-0.116752	-0.327956	-0.363453	0.0830935	0.0999993	5.49557e-06	1.00288	-0.0753617	-0.244538	-1.29596	0.401834	0.0889053	2.35262e-07	-0.116409	-0.126362	0.29173	0.190405	-0.433274	0.0736759	2.41669	1.98503	-0.0135184	-0.0240283	-0.721325	-0.403151	0.0459681	2.11131	1.84164	0.025745	-0.012019
3.03333	-0.143948	0.0755161	-0.174365	0.934508	1.05062	-0.628136	-0.286157	-0.111807	-0.32862	-0.356269	0.027808	0.0999993	5.49557e-06	0.991532	-0.0585578	-0.244215	-1.1773	0.430629	0.0889053	2.35262e-07	-0.108628	-0.126882	0.279845	0.188049	-0.432535	0.0975477	2.44444	1.98808	-0.0135184	-0.0240283	-0.748843	-0.402258	0.0254593	2.12807	1.83069	0.025745	-0.012019
3.04167	-0.143167	0.0710365	-0.156904	0.937248	1.05402	-0.628424	-0.314738	-0.101377	-0.322651	-0.368402	-0.00521804	0.0999993	5.49557e-06	0.973418	-0.0445207	-0.24405	-1.0584	0.46437	0.0889053	2.35262e-07	-0.106061	-0.122993	0.268885	0.180493	-0.433187	0.118794	2.46776	1.99292	-0.0135184	-0.0240283	-0.767111	-0.402206	0.00947196	2.14215	1.82072	0.025745	-0.012019
3.05	-0.140022	0.0631011	-0.14005	0.93957	1.05704	-0.628662	-0.337262	-0.0869781	-0.310174	-0.400331	-0.0176835	0.0999993	5.49557e-06	0.949561	-0.0333449	-0.245919	-0.942012	0.50209	0.0889053	2.35262e-07	-0.108243	-0.115871	0.259456	0.167423	-0.43482	0.136421	2.48596	1.99898	-0.0135184	-0.0240283	-0.775523	-0.403534	-0.0016714	2.15344	1.81341	0.025745	-0.012019
3.05833	-0.134647	0.053081	-0.12437	0.941485	1.0596	-0.628808	-0.353329	-0.0703005	-0.292193	-0.451354	-0.0136883	0.0999993	5.49557e-06	0.921224	-0.0247636	-0.251291	-0.831278	0.54201	0.0889053	2.35262e-07	-0.11458	-0.106862	0.251748	0.148827	-0.436897	0.14969	2.49837	2.00551	-0.0135184	-0.0240283	-0.774018	-0.406547	-0.00800139	2.16182	1.80984	0.025745	-0.012019
3.06667	-0.127242	0.0423777	-0.110182	0.943014	1.06167	-0.628855	-0.362855	-0.0530143	-0.270385	-0.519799	0.00141802	0.0999993	5.49557e-06	0.889828	-0.0182319	-0.260955	-0.729533	0.581593	0.0889053	2.35262e-07	-0.124412	-0.0973189	0.245564	0.12501	-0.43882	0.15816	2.50443	2.01151	-0.0135184	-0.0240283	-0.763026	-0.411337	-0.00980774	2.16715	1.81028	0.025745	-0.012019
3.075	-0.118073	0.0322586	-0.0975678	0.944182	1.0632	-0.628816	-0.366033	-0.03659	-0.246698	-0.603273	0.0222651	0.0999993	5.49557e-06	0.856835	-0.0130625	-0.274888	-0.639945	0.617768	0.0889053	2.35262e-07	-0.137067	-0.0884493	0.240404	0.0965877	-0.440013	0.161714	2.50378	2.0158	-0.0135184	-0.0240283	-0.743366	-0.417819	-0.00753437	2.16938	1.81415	0.025745	-0.012019
